<svg width="24" height="24" viewBox="0 0 24 24" fill="none" xmlns="http://www.w3.org/2000/svg">
<g clip-path="url(#clip0_168_2060)">
<path d="M24 4.87621V5.54161C24 5.54161 23.9685 5.64722 23.9581 5.70003C23.7693 7.42161 23.5701 9.15375 23.3814 10.8753C23.1507 12.9454 22.9096 15.0156 22.6894 17.0857C22.5531 18.3109 22.0079 19.0607 20.9594 19.3459C20.7287 19.4093 20.6868 19.5043 20.6972 19.7156C20.7287 20.3176 20.5505 20.8457 20.152 21.2999C19.6068 21.923 18.9043 22.1765 18.0865 22.1765C15.6959 22.1765 13.3054 22.1765 10.9148 22.1765C8.06291 22.1765 5.21101 22.1765 2.35911 22.1765C1.79292 22.1765 1.27916 22.0497 0.838794 21.6801C0.230668 21.1837 0 20.5288 0 19.7684C0 16.885 0 14.0122 0 11.1288C0 10.0726 0 9.01645 0 7.97083C0 6.53442 1.04849 5.34093 2.5059 5.44655C2.7156 5.46767 2.92529 5.44655 3.14548 5.44655C3.23984 4.67554 3.34469 3.92565 3.41809 3.17576C3.56488 1.76047 4.70773 0.852152 6.10223 1.02114C7.12975 1.14788 8.16776 1.26406 9.19528 1.38024C11.3237 1.62317 13.4626 1.86609 15.5911 2.10901C17.6252 2.34137 19.6697 2.59485 21.7038 2.80609C22.8362 2.92227 23.7588 3.69329 23.9476 4.80228C23.9476 4.83396 23.979 4.85509 23.9895 4.87621H24ZM1.17431 16.2407C1.25819 16.1774 1.30013 16.1562 1.34207 16.1246C2.53735 15.2479 3.73263 14.3713 4.91743 13.5052C6.06029 12.6708 7.32896 12.7236 8.38794 13.6637C9.37353 14.5403 10.3591 15.4064 11.3447 16.283C11.9633 16.8322 12.5819 16.8956 13.2949 16.4731C15.308 15.2902 17.3211 14.1072 19.3447 12.9243C19.4915 12.8398 19.5439 12.7448 19.5439 12.5758C19.5439 11.0971 19.5439 9.61847 19.5439 8.13982C19.5439 7.15757 19.0092 6.62947 18.0341 6.62947C12.844 6.62947 7.66448 6.62947 2.47444 6.62947C2.39056 6.62947 2.2962 6.60835 2.2228 6.62947C2.00262 6.71397 1.76147 6.77734 1.58322 6.92521C1.25819 7.18925 1.1848 7.58004 1.1848 7.99195C1.1848 10.6535 1.1848 13.3257 1.1848 15.9873C1.1848 16.0506 1.1848 16.1246 1.1848 16.2302L1.17431 16.2407ZM19.5229 14.1917C19.4076 14.2551 19.3342 14.2974 19.2608 14.3396C17.4889 15.3747 15.7064 16.4097 13.9345 17.4448C13.7562 17.5504 13.578 17.6455 13.3893 17.7194C12.3303 18.1207 11.3761 17.8884 10.5374 17.1596C9.49934 16.2513 8.48231 15.3219 7.43381 14.4241C6.92005 13.9805 6.26999 13.9488 5.72477 14.3396C4.23591 15.4275 2.74705 16.5365 1.26868 17.6349C1.21625 17.6771 1.16383 17.7722 1.16383 17.8461C1.16383 18.5643 1.15334 19.2825 1.16383 19.9902C1.16383 20.4549 1.50983 20.8563 1.9502 20.9619C2.10747 20.9936 2.27523 20.9936 2.44299 20.9936C7.63303 20.9936 12.8231 20.9936 18.0236 20.9936C18.1284 20.9936 18.2228 20.9936 18.3277 20.983C19.0931 20.9196 19.5229 20.4443 19.5229 19.6628C19.5229 17.9306 19.5229 16.1985 19.5229 14.4664V14.1812V14.1917ZM4.31979 5.44655H4.62385C9.1114 5.44655 13.6094 5.44655 18.097 5.44655C18.5269 5.44655 18.9358 5.52048 19.3132 5.73172C20.2359 6.22812 20.6972 7.02026 20.6972 8.06588C20.6972 11.3506 20.6972 14.6248 20.6972 17.9095V18.2158C21.1166 18.0468 21.3788 17.7933 21.4312 17.3709C21.6409 15.5965 21.8401 13.8221 22.0393 12.0583C22.3014 9.82971 22.5636 7.5906 22.8152 5.36205C22.8886 4.69666 22.4902 4.13688 21.8296 4.04183C20.886 3.90452 19.9423 3.80947 18.9987 3.70385C16.9017 3.46092 14.8152 3.20744 12.7182 2.96452C10.4744 2.70047 8.24115 2.44699 5.99738 2.18294C5.24246 2.09845 4.68676 2.48924 4.57143 3.24969C4.46658 3.96789 4.40367 4.69666 4.31979 5.45711V5.44655Z" fill="white" fill-opacity="0.6"/>
<path d="M12.1625 13.3997C10.8204 13.3997 9.70898 12.2907 9.70898 10.9388C9.70898 9.5974 10.8204 8.46729 12.152 8.46729C13.494 8.46729 14.595 9.57628 14.6054 10.9282C14.6054 12.2801 13.515 13.3891 12.1625 13.3997ZM12.1415 9.65021C11.439 9.65021 10.8623 10.2417 10.8728 10.9493C10.8728 11.657 11.46 12.2379 12.1625 12.2273C12.8649 12.2273 13.4416 11.6253 13.4311 10.9282C13.4311 10.2205 12.844 9.63965 12.1415 9.65021Z" fill="white" fill-opacity="0.6"/>
</g>
<defs>
<clipPath id="clip0_168_2060">
<rect width="24" height="21.1765" fill="white" transform="translate(0 1)"/>
</clipPath>
</defs>
</svg>
