<svg width="24" height="24" viewBox="0 0 24 24" fill="none" xmlns="http://www.w3.org/2000/svg">
<path d="M10.5111 2C12.7123 2 14.9241 2 17.1253 2C19.337 2 20.959 3.6026 20.9695 5.81671C20.98 9.27494 20.9906 12.7332 20.9695 16.1914C20.9695 18.395 19.316 19.9976 17.1042 19.9976C12.6912 19.9976 8.27827 19.9976 3.8653 19.9976C1.63248 19.9976 0 18.3739 0 16.1176C0 12.7015 0 9.27494 0 5.85888C0 3.62368 1.62195 2 3.8653 2C6.07705 2 8.29934 2 10.5111 2ZM10.469 18.5004C12.6702 18.5004 14.8819 18.5004 17.0832 18.5004C18.5577 18.5004 19.4845 17.562 19.4845 16.0754C19.4845 12.6805 19.4845 9.29603 19.4845 5.90105C19.4845 4.41444 18.5366 3.47607 17.0516 3.46553C12.6702 3.46553 8.2888 3.46553 3.90743 3.46553C2.43293 3.46553 1.49557 4.40389 1.49557 5.87997C1.49557 9.27494 1.49557 12.6805 1.49557 16.0754C1.49557 16.2652 1.49557 16.4655 1.53769 16.6553C1.75887 17.7729 2.6541 18.4793 3.85477 18.4793C6.05599 18.4793 8.26774 18.4793 10.469 18.4793V18.5004Z" fill="white" fill-opacity="0.6"/>
<path d="M22.4859 5.75342C23.4549 6.54417 23.9604 7.50362 23.971 8.66339C23.992 11.4996 24.0236 14.3357 23.971 17.1614C23.9078 20.4298 21.2642 22.9813 17.9887 22.9919C14.2393 23.0024 10.4898 22.9919 6.7509 22.9919C5.55023 22.9919 4.59181 22.4963 3.75977 21.5158C3.93881 21.5158 4.04413 21.5158 4.14946 21.5158C8.73094 21.5158 13.3019 21.5158 17.8834 21.5158C20.0214 21.5158 21.7908 20.2084 22.328 18.2052C22.4438 17.7623 22.4859 17.2773 22.4859 16.8134C22.4965 13.2603 22.4859 9.69665 22.4859 6.14352C22.4859 6.03809 22.4859 5.93266 22.4859 5.75342Z" fill="white" fill-opacity="0.6"/>
<path d="M7.49881 10.9833C7.49881 9.91838 7.49881 8.8535 7.49881 7.78862C7.49881 7.29308 7.64626 6.88189 8.09915 6.63939C8.55203 6.39689 8.97331 6.50233 9.38407 6.787C11.1008 7.95731 12.8176 9.12763 14.5343 10.2874C15.1346 10.6986 15.1452 11.2679 14.5448 11.6791C12.8176 12.86 11.0903 14.0303 9.37354 15.2112C8.96278 15.4958 8.5415 15.5907 8.08861 15.3588C7.63573 15.1163 7.48828 14.7051 7.48828 14.2095C7.48828 13.1341 7.48828 12.0587 7.48828 10.9833H7.49881Z" fill="white" fill-opacity="0.6"/>
</svg>
