<svg width="100" height="100" viewBox="0 0 100 100" fill="none" xmlns="http://www.w3.org/2000/svg">
<rect width="100" height="100" rx="50" fill="#00B8B1"/>
<path d="M49.9752 19.3333C50.2419 19.3333 50.5085 19.3333 50.7752 19.3333C52.3752 19.8667 53.4419 21.4667 53.4419 23.0667C53.4419 24.6667 52.3752 26.2667 50.7752 26.8C50.5085 26.8 50.5085 26.8 50.5085 27.3334C50.5085 30 50.5085 32.9334 50.5085 35.6C50.5085 35.6 50.5085 35.8667 50.7752 36.1334C50.7752 36.1334 51.3085 36.1334 51.5752 36.4C55.0419 32.9334 58.5086 29.4667 61.9752 26C60.9086 23.8667 61.7086 22 63.0419 20.9333C64.6419 19.8667 66.7752 19.8667 68.1086 21.2C69.4419 22.5333 69.7086 24.6667 68.6419 26.2667C67.5752 27.6 65.4419 28.6667 63.5752 27.3334C60.1086 30.8 56.6419 34.2667 53.1752 37.7334C53.1752 38 53.1752 38.2667 53.4419 38.5334C53.4419 38.5334 53.4419 38.5334 53.7086 38.5334C55.0419 38.5334 56.6419 38.5334 57.9752 38.5334C60.1086 38.5334 62.2419 38.5334 64.1086 38.5334H64.3752C64.9086 36.9334 66.5086 35.8667 68.3753 35.8667C70.2419 35.8667 71.5753 37.2 72.1086 39.0667C72.6419 41.2001 71.0419 43.3334 68.9086 43.6001C67.0419 43.6001 65.1752 42.8001 64.6419 40.9334C64.6419 40.9334 64.6419 40.9334 64.3752 40.9334C60.9086 40.9334 57.4419 40.9334 53.9752 40.9334H53.7086C53.1752 42.2667 52.3752 43.0667 51.3085 43.3334C51.3085 44.4001 51.3085 45.2001 51.3085 46.2667C57.4419 46.8001 61.4419 52.1334 60.9086 57.4668C60.6419 63.3334 55.8419 67.6001 50.2419 67.6001C44.6419 67.6001 40.1085 63.3334 39.5752 58.0001C39.0419 52.1334 43.0419 46.8001 49.1752 46.0001C49.1752 45.2001 49.1752 44.4001 49.1752 43.6001C49.1752 43.0667 49.1752 42.8001 48.6419 42.5334C47.5752 42.0001 46.7752 41.2001 46.5085 40.1334C46.5085 40.1334 46.5085 39.8667 46.2419 39.8667C42.7752 39.8667 39.3085 39.8667 35.8418 39.8667H35.5752C35.0418 41.4667 33.4418 42.5334 31.8418 42.5334C29.9752 42.5334 28.6418 41.2001 28.1085 39.3334C27.5752 37.2 29.1752 35.0667 31.3085 34.8C33.1752 34.8 35.0418 35.6 35.5752 37.4667C35.5752 37.4667 35.5752 37.4667 35.8418 37.4667C39.3085 37.4667 42.7752 37.4667 46.5085 37.4667C46.5085 37.4667 46.5085 37.4667 46.7752 37.4667C46.7752 37.2 46.7752 36.9334 47.0419 36.6667C43.5752 33.2 40.1085 29.7334 36.6418 26.2667C34.5085 27.3334 32.3752 26.2667 31.3085 24.9333C30.2418 23.3333 30.5085 21.2 31.8418 19.8667C33.1752 18.5333 35.3085 18.2667 36.9085 19.6C38.2419 20.6667 39.0419 22.8 37.9752 24.6667C41.4419 28.1334 44.9085 31.6 48.3752 35.0667C48.3752 35.0667 48.9085 35.0667 49.1752 34.8C49.1752 34.8 49.1752 34.8 49.1752 34.5334C49.1752 33.2 49.1752 31.6 49.1752 30.2667C49.1752 28.9334 49.1752 27.3334 49.1752 26V25.7334C47.5752 25.2 46.5085 23.6 46.5085 21.7333C46.5085 19.8667 47.8419 18.5333 49.7085 18C49.7085 18 49.7085 18 49.9752 18C50.2419 18 50.5085 18 50.7752 18L49.9752 19.3333ZM40.6419 57.4668C40.6419 62.2668 44.6419 66.2668 49.4419 66.2668C54.2419 66.2668 58.2419 62.2668 58.2419 57.4668C58.2419 52.6667 54.2419 48.6667 49.4419 48.6667C44.6419 48.6667 40.6419 52.6667 40.6419 57.4668ZM49.4419 21.2C48.3752 21.2 47.5752 22 47.5752 23.0667C47.5752 24.1333 48.3752 24.9333 49.4419 24.9333C50.5085 24.9333 51.3085 24.1333 51.3085 23.0667C51.3085 22 50.5085 21.2 49.4419 21.2ZM33.7085 22.2667C32.6418 22.2667 31.8418 23.0667 31.8418 24.1333C31.8418 25.2 32.6418 26 33.7085 26C34.7752 26 35.5752 25.2 35.5752 24.1333C35.5752 23.0667 34.7752 22.2667 33.7085 22.2667ZM65.1752 26C66.2419 26 67.0419 25.2 67.0419 24.1333C67.0419 23.0667 66.2419 22.2667 65.1752 22.2667C64.1086 22.2667 63.3086 23.0667 63.3086 24.1333C63.3086 25.2 64.1086 26 65.1752 26ZM49.4419 41.7334C50.5085 41.7334 51.3085 40.9334 51.3085 39.8667C51.3085 38.8 50.5085 38 49.4419 38C48.3752 38 47.5752 38.8 47.5752 39.8667C47.5752 40.9334 48.3752 41.7334 49.4419 41.7334ZM69.9753 39.8667C69.9753 38.8 69.1753 38 68.1086 38C67.0419 38 66.2419 38.8 66.2419 39.8667C66.2419 40.9334 67.0419 41.7334 68.1086 41.7334C69.1753 41.7334 69.9753 40.9334 69.9753 39.8667ZM32.9085 39.8667C32.9085 38.8 32.1085 38 31.0418 38C29.9752 38 29.1752 38.8 29.1752 39.8667C29.1752 40.9334 29.9752 41.7334 31.0418 41.7334C32.1085 41.7334 32.9085 40.9334 32.9085 39.8667Z" fill="white"/>
<path d="M19.0417 72.1336H77.7085V74.0003H21.1751V79.867H79.8419V40.9336H73.7085V39.0669H81.7086V82.0003H19.0417C19.0417 78.8003 19.0417 75.6003 19.0417 72.1336Z" fill="white"/>
<path d="M19.0417 38.8003H24.9084V40.667H20.9084V70.0004H19.0417V38.8003Z" fill="white"/>
<path d="M27.0417 77.9997V76.1331H55.3085V75.0664H57.1751V76.1331H69.9752V77.9997H57.1751V79.0664H55.3085V77.9997H27.0417Z" fill="white"/>
<path d="M24.9084 78H23.0417V76.1333H24.9084V78Z" fill="white"/>
<path d="M73.9751 78H72.1084V76.1333H73.9751V78Z" fill="white"/>
<path d="M77.7087 75.8672V77.7339H75.842V75.8672H77.7087Z" fill="white"/>
<path d="M45.4417 51.8667C49.175 53.7334 52.6417 55.6 56.375 57.4667C52.6417 59.3334 49.175 61.2001 45.4417 63.0667V51.8667ZM52.1083 57.4667C50.5083 56.6667 48.9083 55.8667 47.575 55.0667V59.6C49.175 58.8 50.775 58 52.1083 57.2V57.4667Z" fill="white"/>
</svg>
